<?xml version="1.0" encoding="UTF-8"?>
<!DOCTYPE svg PUBLIC "-//W3C//DTD SVG 1.1//EN" "http://www.w3.org/Graphics/SVG/1.1/DTD/svg11.dtd">
<!-- Creator: CorelDRAW 2019 (64 Bit) -->
<svg xmlns="http://www.w3.org/2000/svg" xml:space="preserve" width="12.7mm" height="4.5986mm" version="1.1" shape-rendering="geometricPrecision" text-rendering="geometricPrecision" image-rendering="optimizeQuality" fill-rule="evenodd" clip-rule="evenodd"
viewBox="0 0 132.46 47.96"
 xmlns:xlink="http://www.w3.org/1999/xlink">
 <g id="Camada_x0020_1">
  <metadata id="CorelCorpID_0Corel-Layer"/>
  <path fill="white" fill-rule="nonzero" d="M6.91 14.2c0,1.35 0.14,2.55 0.4,3.57 0.27,1.02 0.66,1.88 1.18,2.58 0.52,0.69 1.17,1.22 1.93,1.57 0.77,0.35 1.65,0.53 2.66,0.53 0.87,0 1.67,-0.12 2.41,-0.35 0.74,-0.23 1.38,-0.56 1.93,-0.98 0.55,-0.43 0.99,-0.95 1.33,-1.57 0.33,-0.62 0.53,-1.31 0.59,-2.08l-6.52 0 0 -4.2 13.03 0 0 14.24 -6.39 0 0 -6.19c-0.37,1.04 -0.84,1.98 -1.42,2.81 -0.58,0.84 -1.25,1.54 -2.01,2.13 -0.76,0.58 -1.59,1.03 -2.51,1.34 -0.92,0.31 -1.9,0.47 -2.93,0.47 -1.02,0 -1.98,-0.15 -2.9,-0.45 -0.92,-0.3 -1.77,-0.73 -2.55,-1.29 -0.79,-0.56 -1.5,-1.25 -2.13,-2.06 -0.63,-0.82 -1.17,-1.74 -1.62,-2.76 -0.45,-1.02 -0.79,-2.15 -1.03,-3.38 -0.24,-1.23 -0.37,-2.53 -0.37,-3.92 0,-1.4 0.15,-2.71 0.44,-3.94 0.3,-1.23 0.72,-2.35 1.26,-3.38 0.54,-1.03 1.2,-1.95 1.98,-2.75 0.78,-0.81 1.65,-1.49 2.62,-2.06 0.97,-0.56 2.03,-0.99 3.17,-1.28 1.15,-0.29 2.35,-0.44 3.62,-0.44 1.06,0 2.08,0.11 3.06,0.32 0.98,0.21 1.91,0.52 2.78,0.93 0.87,0.41 1.67,0.92 2.41,1.51 0.74,0.6 1.4,1.28 1.98,2.04 0.58,0.76 1.06,1.61 1.46,2.53 0.4,0.92 0.68,1.92 0.86,2.99l-6.8 0c-0.18,-0.77 -0.45,-1.44 -0.79,-2.01 -0.35,-0.57 -0.77,-1.05 -1.27,-1.42 -0.49,-0.38 -1.05,-0.67 -1.67,-0.86 -0.62,-0.19 -1.29,-0.28 -2.01,-0.28 -1,0 -1.88,0.17 -2.65,0.52 -0.77,0.35 -1.42,0.86 -1.95,1.54 -0.53,0.68 -0.92,1.52 -1.2,2.53 -0.27,1.01 -0.4,2.18 -0.4,3.51zm34.51 -7.21l6.47 0 0 20.51 -6.47 0 0 -6.28c-0.4,2.25 -1.18,3.96 -2.35,5.11 -1.17,1.15 -2.7,1.72 -4.6,1.72 -2.15,0 -3.77,-0.75 -4.87,-2.25 -1.09,-1.5 -1.64,-3.73 -1.64,-6.69l0 -12.13 6.47 0 0 10.74c0,1.59 0.27,2.79 0.82,3.57 0.55,0.79 1.38,1.18 2.48,1.18 1.2,0 2.11,-0.42 2.74,-1.25 0.63,-0.82 0.94,-2.05 0.94,-3.66l0 -10.59zm15.02 20.51l-6.47 0 0 -27.51 6.47 0 0 27.51zm8.55 0l-6.47 0 0 -27.51 6.47 0 0 27.51zm8.59 -22.53l-6.54 0 0 -4.98 6.54 0 0 4.98zm-0.04 22.53l-6.47 0 0 -20.48 6.47 0 0 20.48zm23.01 -20.48l-6.66 20.48 -8.64 0 -6.6 -20.48 6.84 0 4.15 16.22 4.21 -16.22 6.69 0zm20.02 13.47c-0.29,1.18 -0.73,2.23 -1.34,3.17 -0.61,0.94 -1.34,1.73 -2.21,2.39 -0.87,0.65 -1.85,1.15 -2.95,1.5 -1.1,0.35 -2.28,0.52 -3.55,0.52 -1.04,0 -2.02,-0.12 -2.94,-0.35 -0.92,-0.23 -1.78,-0.58 -2.55,-1.02 -0.78,-0.45 -1.47,-0.98 -2.09,-1.62 -0.61,-0.63 -1.14,-1.35 -1.57,-2.16 -0.43,-0.8 -0.76,-1.68 -0.99,-2.63 -0.23,-0.95 -0.34,-1.96 -0.34,-3.04 0,-1.07 0.11,-2.08 0.33,-3.04 0.23,-0.95 0.55,-1.82 0.98,-2.62 0.42,-0.8 0.94,-1.52 1.55,-2.15 0.61,-0.64 1.3,-1.18 2.08,-1.62 0.77,-0.44 1.61,-0.77 2.53,-1.01 0.91,-0.24 1.88,-0.35 2.91,-0.35 1.03,0 2,0.12 2.9,0.35 0.9,0.24 1.74,0.57 2.5,1 0.76,0.44 1.44,0.97 2.04,1.61 0.6,0.63 1.11,1.34 1.52,2.14 0.42,0.8 0.74,1.67 0.96,2.63 0.22,0.95 0.33,1.96 0.33,3.04 0,0.51 -0.03,1.03 -0.07,1.54l-14.42 0c0.08,0.68 0.24,1.29 0.48,1.82 0.24,0.53 0.56,0.98 0.94,1.35 0.38,0.37 0.84,0.65 1.36,0.84 0.53,0.2 1.11,0.29 1.75,0.29 0.95,0 1.75,-0.21 2.39,-0.64 0.64,-0.43 1.15,-1.08 1.51,-1.95l5.97 0zm-5.97 -5.25c-0.45,-2.61 -1.83,-3.92 -4.16,-3.92 -1.18,0 -2.13,0.33 -2.85,1 -0.72,0.67 -1.18,1.64 -1.38,2.91l8.39 0zm14.2 12.27l-6.47 0 0 -20.48 6.47 0 0 7.4c0.16,-1.13 0.4,-2.16 0.71,-3.07 0.32,-0.91 0.72,-1.68 1.23,-2.33 0.51,-0.64 1.13,-1.13 1.85,-1.48 0.72,-0.35 1.57,-0.52 2.53,-0.52l1.34 0 0 6.06 -2.75 0c-0.96,0 -1.75,0.11 -2.39,0.32 -0.63,0.22 -1.13,0.55 -1.51,1 -0.37,0.45 -0.64,1.01 -0.79,1.7 -0.16,0.69 -0.23,1.51 -0.23,2.44l0 8.96z"/>
  <path fill="white" fill-rule="nonzero" d="M17.3 37.25l-4.21 0 0 10.71 -1.82 0 0 -10.71 -4.21 0 0 -1.68 10.25 0 0 1.68zm3.93 10.71l0 -12.4 6.01 0c0.41,0 0.81,0.04 1.17,0.12 0.37,0.08 0.71,0.2 1.02,0.35 0.31,0.15 0.59,0.34 0.84,0.55 0.25,0.22 0.46,0.46 0.64,0.73 0.17,0.27 0.31,0.57 0.4,0.88 0.09,0.32 0.14,0.66 0.14,1.02 0,0.48 -0.08,0.91 -0.25,1.3 -0.16,0.39 -0.4,0.73 -0.7,1.01 -0.3,0.28 -0.66,0.5 -1.09,0.66 -0.42,0.16 -0.9,0.25 -1.42,0.26 0.46,0.04 0.87,0.22 1.23,0.55 0.36,0.33 0.68,0.79 0.95,1.4l1.6 3.57 -2 0 -1.6 -3.56c-0.1,-0.23 -0.22,-0.43 -0.36,-0.59 -0.14,-0.16 -0.3,-0.29 -0.49,-0.39 -0.19,-0.1 -0.42,-0.17 -0.68,-0.21 -0.26,-0.04 -0.57,-0.06 -0.93,-0.06l-2.67 0 0 4.82 -1.82 0zm5.77 -6.52c0.41,0 0.77,-0.05 1.1,-0.15 0.32,-0.1 0.6,-0.24 0.82,-0.43 0.23,-0.18 0.4,-0.41 0.51,-0.67 0.12,-0.27 0.18,-0.57 0.18,-0.9 0,-0.33 -0.06,-0.62 -0.17,-0.87 -0.12,-0.25 -0.29,-0.47 -0.51,-0.64 -0.23,-0.17 -0.5,-0.3 -0.83,-0.4 -0.33,-0.09 -0.7,-0.14 -1.12,-0.14l-3.94 0 0 4.2 3.95 0zm8.46 6.52l4.62 -12.4 2.73 0 4.56 12.4 -1.93 0 -1.13 -3.1 -5.81 0 -1.15 3.1 -1.89 0zm8.24 -4.75l-2.28 -6.27 -2.32 6.27 4.6 0.01zm17.03 -7.65l-4.45 12.4 -2.73 0 -4.39 -12.4 1.94 0 3.84 10.99 3.89 -10.99 1.89 0zm12.32 -0.01l0 1.69 -6.55 0 0 3.68 6.03 0 0 1.7 -6.03 0 0 3.66 6.73 0 0 1.68 -8.55 0 0 -12.4 8.37 0zm6.16 0.01l0 10.71 6.38 0 0 1.68 -8.2 0 0 -12.4 1.82 0zm12.39 0l0 10.71 6.38 0 0 1.68 -8.2 0 0 -12.4 1.82 0zm18.94 -0.01l0 1.69 -6.55 0 0 3.68 6.03 0 0 1.7 -6.03 0 0 3.66 6.73 0 0 1.68 -8.55 0 0 -12.4 8.37 0zm4.32 12.4l0 -12.4 6.01 0c0.41,0 0.81,0.04 1.17,0.12 0.37,0.08 0.71,0.2 1.02,0.35 0.31,0.15 0.59,0.34 0.84,0.55 0.25,0.22 0.46,0.46 0.64,0.73 0.17,0.27 0.31,0.57 0.4,0.88 0.09,0.32 0.14,0.66 0.14,1.02 0,0.48 -0.08,0.91 -0.25,1.3 -0.16,0.39 -0.4,0.73 -0.7,1.01 -0.3,0.28 -0.66,0.5 -1.09,0.66 -0.42,0.16 -0.9,0.25 -1.42,0.26 0.46,0.04 0.87,0.22 1.23,0.55 0.36,0.33 0.68,0.79 0.95,1.4l1.6 3.57 -2 0 -1.6 -3.56c-0.1,-0.23 -0.22,-0.43 -0.36,-0.59 -0.14,-0.16 -0.3,-0.29 -0.49,-0.39 -0.19,-0.1 -0.42,-0.17 -0.68,-0.21 -0.26,-0.04 -0.57,-0.06 -0.93,-0.06l-2.67 0 0 4.82 -1.82 0zm5.77 -6.52c0.41,0 0.77,-0.05 1.1,-0.15 0.32,-0.1 0.6,-0.24 0.82,-0.43 0.23,-0.18 0.4,-0.41 0.51,-0.67 0.12,-0.27 0.18,-0.57 0.18,-0.9 0,-0.33 -0.06,-0.62 -0.17,-0.87 -0.12,-0.25 -0.29,-0.47 -0.51,-0.64 -0.23,-0.17 -0.5,-0.3 -0.83,-0.4 -0.33,-0.09 -0.7,-0.14 -1.12,-0.14l-3.94 0 0 4.2 3.95 0z"/>
 </g>
</svg>
